<svg id="Layer_1" data-name="Layer 1" xmlns="http://www.w3.org/2000/svg" viewBox="0 0 164.01 84.4"><title>SA_logo</title><path d="M41.44,59.5c-.41,0-.93,0-1.26,0l-.31,0-.31,0c-.36,0-1,0-1.68,0-.49,0-.58.22-.58.4a.45.45,0,0,0,.43.45c.78,0,.78.17.78.31a3.75,3.75,0,0,1-.21,1.16c-.55,2-1.77,6.06-2.51,8.47l-.22.76L32,60.65c-.29-.82-.48-1.09-.78-1.09s-.46.25-.76,1.06L26.61,71c-.58-2-2.09-7.55-2.36-8.6a15.74,15.74,0,0,1-.37-1.77.17.17,0,0,1,.12-.19,1.61,1.61,0,0,1,.59-.08A.46.46,0,0,0,25,59.9c0-.26-.21-.4-.61-.4-.69,0-1.33,0-1.71,0l-.33,0-.39,0c-.45,0-1.19,0-1.9,0-.42,0-.57.21-.57.4a.44.44,0,0,0,.43.45,3.7,3.7,0,0,1,.8.09c.39.14.55.29.86,1.32l3.45,11.67c.39,1.32.58,1.73,1,1.73s.59-.36.92-1.2,1.27-3.4,2.14-5.75c.63-1.7,1.24-3.36,1.62-4.37L34.32,74c.27.76.49,1.18.88,1.18s.57-.39,1.08-1.86c.4-1.13,1.11-3.35,1.79-5.51s1.36-4.22,1.78-5.44c.34-1,.64-1.76,1.1-1.92a2.52,2.52,0,0,1,.58-.08.44.44,0,0,0,.43-.47c0-.06,0-.38-.52-.38" transform="translate(-9.99 -4)"/><path d="M48.3,74.07a6.55,6.55,0,0,1-.84-.09c-.37-.06-.43-.2-.5-.81-.09-.81-.09-2.39-.09-4.23V65.46c0-3.06,0-3.61,0-4.22s.14-.78.48-.85a1.92,1.92,0,0,1,.44,0,.45.45,0,0,0,.41-.43c0-.12,0-.42-.57-.42s-1.2,0-1.63,0h-.64c-.43,0-1.18,0-1.63,0s-.57.27-.57.42a.42.42,0,0,0,.41.43,3,3,0,0,1,.54,0c.21.05.38.14.42.84s.05,1.17.05,4.22v3.48c0,1.6,0,3.36-.12,4.23-.06.6-.13.77-.32.82a2.13,2.13,0,0,1-.52.08.4.4,0,0,0-.41.42c0,.12.05.42.55.42s1.16,0,1.59-.06h.56c.41,0,1.37.06,2.21.06.54,0,.56-.35.56-.42a.4.4,0,0,0-.4-.42" transform="translate(-9.99 -4)"/><path d="M56.52,65.9,56,65.51c-1.92-1.36-2.42-2-2.42-3.13,0-1.38,1.26-1.87,2.34-1.87,1.81,0,2.27.81,2.29.84a3.31,3.31,0,0,1,.26.88c0,.16.08.48.43.48s.42-.48.42-.7c0-1,.05-1.67.07-1.93a1.18,1.18,0,0,0,0-.16c0-.18-.08-.39-.45-.39a2.28,2.28,0,0,1-.62-.08,9.14,9.14,0,0,0-2.08-.24c-2.78,0-4.57,1.55-4.57,4,0,1.53.84,2.81,2.89,4.42l.88.69c1.75,1.36,2.36,2,2.36,3.23,0,1.45-1,2.35-2.67,2.35-1.18,0-2.55-.45-2.82-1.74a2.86,2.86,0,0,1-.06-.66.44.44,0,0,0-.44-.49c-.12,0-.4,0-.4.56l0,.24a18.6,18.6,0,0,0-.1,1.87c0,.55,0,.75.44,1a7.17,7.17,0,0,0,2.94.56,5.67,5.67,0,0,0,3.23-.74,4.11,4.11,0,0,0,1.93-3.56c0-1.86-1-3.29-3.29-5" transform="translate(-9.99 -4)"/><path d="M68.11,65.9l-.55-.39c-1.92-1.36-2.42-2-2.42-3.13,0-1.38,1.26-1.87,2.34-1.87,1.81,0,2.29.83,2.3.84a3.85,3.85,0,0,1,.25.88c0,.14.07.48.43.48s.41-.48.41-.7A18,18,0,0,1,71,60.08c0-.08,0-.13,0-.16s-.07-.39-.45-.39a2.34,2.34,0,0,1-.63-.08,8.9,8.9,0,0,0-2.07-.24c-2.78,0-4.56,1.55-4.56,4,0,1.53.83,2.81,2.88,4.42l.88.69c1.75,1.36,2.36,2,2.36,3.23,0,1.45-1,2.35-2.66,2.35-1.19,0-2.55-.45-2.83-1.74a2.86,2.86,0,0,1-.06-.66.44.44,0,0,0-.43-.49c-.15,0-.41.07-.41.56v.18a19.29,19.29,0,0,0-.1,1.93c0,.55,0,.75.43,1a7.17,7.17,0,0,0,2.94.56,5.73,5.73,0,0,0,3.24-.74,4.17,4.17,0,0,0,1.93-3.56c0-1.86-1-3.29-3.3-5" transform="translate(-9.99 -4)"/><path d="M15.23,65.9l-.55-.39c-1.91-1.36-2.41-2-2.41-3.13,0-1.38,1.25-1.87,2.33-1.87,1.8,0,2.28.81,2.3.84a4.26,4.26,0,0,1,.26.88c0,.14.06.48.42.48s.42-.46.42-.7c0-1,.05-1.66.07-1.93a1.18,1.18,0,0,0,0-.16c0-.18-.07-.39-.45-.39a2.38,2.38,0,0,1-.63-.08,8.9,8.9,0,0,0-2.07-.24c-2.78,0-4.56,1.55-4.56,4,0,1.53.83,2.81,2.88,4.42l.88.69c1.75,1.36,2.36,2,2.36,3.23,0,1.45-1,2.35-2.66,2.35-.58,0-2.48-.12-2.83-1.74a2.86,2.86,0,0,1-.06-.66A.44.44,0,0,0,10.5,71c-.11,0-.39,0-.39.56l0,.21a16.46,16.46,0,0,0-.1,1.9c0,.55,0,.75.42,1a7.26,7.26,0,0,0,2.95.56,5.73,5.73,0,0,0,3.24-.74,4.1,4.1,0,0,0,1.92-3.56c0-1.86-.95-3.29-3.29-5" transform="translate(-9.99 -4)"/><path d="M121.84,74.07a2.3,2.3,0,0,1-.69-.1c-.3-.1-.8-.27-1.49-2-.63-1.56-1.77-4.49-2.78-7.09C116,62.49,115.15,60.42,115,60l-.1-.24c-.14-.33-.26-.62-.59-.62s-.47.31-.7.92L109,72.38c-.33.87-.61,1.38-1.13,1.58a3.84,3.84,0,0,1-1.76-1.24c-1.09-1.18-2.39-2.88-3.89-4.87l0,0a6,6,0,0,0,2.3-4.53A3.73,3.73,0,0,0,103,60.42a6.43,6.43,0,0,0-3.78-.92l-1.77,0-.66,0h-.3c-.46,0-1.34,0-2,0-.49,0-.57.27-.57.42a.45.45,0,0,0,.41.43,4.35,4.35,0,0,1,.63,0c.44.06.53.2.58.86s0,1.16,0,4.21v3.48a40,40,0,0,1-.12,4.27c-.09.58-.14.73-.32.78a2.13,2.13,0,0,1-.53.08.42.42,0,0,0-.41.42c0,.12.06.42.57.42s1.51,0,1.83-.07h.29c.42,0,1.36.07,2.19.07.54,0,.57-.35.57-.42a.4.4,0,0,0-.42-.42,5.8,5.8,0,0,1-.82-.09c-.41-.06-.49-.25-.55-.81-.09-.8-.09-2.31-.09-4.21v-.37l2.39,0s0,0,0,0l.78,1.08c.4.55.87,1.21,1.32,1.79a10.15,10.15,0,0,0,2.73,3,3.93,3.93,0,0,0,2.15.43h1.27a1.3,1.3,0,0,0,.46-.06h.24l.58,0c.4,0,.9,0,1.17,0,.52,0,.55-.35.55-.42a.42.42,0,0,0-.46-.42h-.18c-.27,0-.41-.09-.41-.28a4.11,4.11,0,0,1,.28-1.23l1.06-3.14h4.46L118,73.89a.16.16,0,0,1,0,.2l0,0a.36.36,0,0,0-.24.35c0,.34.38.36.77.38l.16,0c.88,0,2,0,3.09,0,.6,0,.7-.26.7-.42a.46.46,0,0,0-.51-.42m-6.1-6h-3.45l1.67-5ZM97.83,60.81a8.69,8.69,0,0,1,1.28-.1c2,0,3.11,1.32,3.11,3.61a3.35,3.35,0,0,1-1.07,2.8,2.2,2.2,0,0,1-1.31.31,5.5,5.5,0,0,1-2-.3Z" transform="translate(-9.99 -4)"/><path d="M130.45,66.13a4.6,4.6,0,0,0,1.74-3.36c0-1.13-.9-3.27-4.34-3.27-.54,0-1.07,0-1.51,0l-.78,0h-.28c-.45,0-1.32,0-2,0-.5,0-.56.3-.56.42a.41.41,0,0,0,.41.38,4.13,4.13,0,0,1,.63.05c.43,0,.53.22.58.89s0,1.16,0,4.22v3.48a38.42,38.42,0,0,1-.12,4.22v.1c-.08.51-.14.75-.27.77l-.26,0a2,2,0,0,1-.31.05.37.37,0,0,0-.41.37c0,.12.06.42.56.42.31,0,.77,0,1.18,0s.59,0,.73,0h.42c.24,0,.56,0,.89,0,.65.05,1.36.08,1.7.08,3.53,0,5.14-2.4,5.14-4.64a4.75,4.75,0,0,0-3.2-4.19m-1.72,7.62a4,4,0,0,1-1.59-.25c-.45-.23-.46-.32-.53-1.2v-.08c0-.28,0-2.72,0-4.17v-1a10.14,10.14,0,0,1,1.33,0l.37.06a2.71,2.71,0,0,1,1.29.42A4.16,4.16,0,0,1,131.33,71c0,1.84-.88,2.78-2.6,2.78m-2.14-13h0a5.42,5.42,0,0,1,.94-.08c1.73,0,2.5,1.46,2.5,2.92a2.86,2.86,0,0,1-.69,1.93c-.33.38-.64.42-1.72.42a6.21,6.21,0,0,1-1.07-.07Z" transform="translate(-9.99 -4)"/><path d="M141,74.07a6.37,6.37,0,0,1-.84-.09c-.38-.06-.44-.21-.5-.81-.09-.81-.09-2.39-.09-4.23V65.46c0-3.06,0-3.61,0-4.22s.14-.78.49-.86a2.44,2.44,0,0,1,.43,0,.44.44,0,0,0,.41-.43c0-.15-.08-.42-.56-.42s-1.21,0-1.65,0h-.63c-.44,0-1.18,0-1.64,0s-.56.27-.56.42a.43.43,0,0,0,.4.43,4.13,4.13,0,0,1,.55,0c.21.05.37.14.42.84s0,1.17,0,4.22v3.48c0,1.6,0,3.37-.11,4.23-.06.6-.13.77-.32.82a2.27,2.27,0,0,1-.53.08.42.42,0,0,0-.41.42c0,.12.06.42.56.42s1.15,0,1.58-.06h.56c.41,0,1.38.06,2.22.06.54,0,.57-.35.57-.42a.42.42,0,0,0-.41-.42" transform="translate(-9.99 -4)"/><path d="M157.17,74.07a2.19,2.19,0,0,1-.69-.1c-.32-.11-.8-.27-1.5-2-.6-1.5-1.68-4.27-2.65-6.78s-1.84-4.76-2-5.19l-.11-.24c-.14-.34-.27-.62-.58-.62s-.48.31-.72.92l-4.57,12.32c-.38,1-.71,1.56-1.43,1.65l-.55,0a.42.42,0,0,0-.42.42c0,.19.11.42.63.42s1.14,0,1.56-.06h.4l.58,0c.41,0,.89,0,1.17,0,.5,0,.54-.32.54-.42a.41.41,0,0,0-.45-.42h-.18c-.27,0-.41-.09-.41-.28a4,4,0,0,1,.27-1.23l1.07-3.14h4.45l1.74,4.47a.27.27,0,0,1,0,.15s-.05,0-.05,0l-.06,0a.35.35,0,0,0-.23.35c0,.34.35.36.75.38l.17,0c.87,0,2,0,3.08,0,.61,0,.7-.26.7-.42a.45.45,0,0,0-.5-.42m-6.1-6h-3.45l1.67-5Z" transform="translate(-9.99 -4)"/><path d="M92.94,74.07a2.26,2.26,0,0,1-.69-.1c-.32-.11-.81-.27-1.51-2C90.12,70.43,89,67.53,88,65s-1.76-4.55-1.94-5c0-.09-.08-.17-.12-.25-.14-.33-.25-.61-.58-.61s-.47.31-.7.92L80.09,72.38c-.37,1-.71,1.56-1.43,1.65l-.54,0a.42.42,0,0,0-.43.42c0,.19.1.42.62.42s1.15,0,1.56-.06h.42l.57,0c.4,0,.89,0,1.17,0,.51,0,.54-.32.54-.42a.41.41,0,0,0-.45-.42h-.18c-.27,0-.41-.09-.41-.28a4.24,4.24,0,0,1,.28-1.23l1.07-3.14h4.45l1.72,4.47c0,.07,0,.12,0,.15a.07.07,0,0,1,0,0l-.06,0a.37.37,0,0,0-.24.36c0,.34.36.36.75.38l.17,0c.88,0,2,0,3.09,0,.61,0,.69-.26.69-.42a.45.45,0,0,0-.49-.42m-6.11-6H83.38l1.67-5Z" transform="translate(-9.99 -4)"/><path d="M173.39,59.5c-.53,0-1,0-1.3,0l-.36,0-.42,0c-.41,0-1,0-1.61,0-.16,0-.64,0-.64.4a.42.42,0,0,0,.41.45,5,5,0,0,1,.91.08c.36.07.5.23.52,1.59l.19,9.18-.41-.46c-.94-1-2.37-2.64-3.74-4.11-2-2.17-3.95-4.29-5.1-5.56l-1.05-1.16-.08-.08c-.31-.34-.57-.6-.86-.6-.53,0-.53.81-.53,1.25V71.76c0,1.69-.06,2.12-.36,2.21a2.57,2.57,0,0,1-.72.1.42.42,0,0,0-.42.42c0,.28.2.42.57.42.63,0,1.22,0,1.57-.06h.58c.35,0,1,.06,1.79.06.53,0,.61-.26.61-.42a.41.41,0,0,0-.41-.42,4.72,4.72,0,0,1-.91-.1c-.35-.1-.52-.42-.56-2l-.2-8.59c1.06,1.2,3.24,3.6,4.57,5.06,2.08,2.26,4.89,5.16,5.09,5.34,1.15,1.12,1.35,1.28,1.65,1.28s.42-.29.42-1.67l0-11.54c0-1.24.09-1.37.49-1.45a1.91,1.91,0,0,1,.41,0,.48.48,0,0,0,.48-.45c0-.26-.21-.4-.61-.4" transform="translate(-9.99 -4)"/><path d="M67,87.45a2.17,2.17,0,0,0,1.18.36.94.94,0,0,0,1.07-.94c0-.5-.28-.81-1-1.08s-1.35-.79-1.35-1.56a1.51,1.51,0,0,1,1.65-1.49,2.14,2.14,0,0,1,1.14.27l-.19.57a1.81,1.81,0,0,0-1-.25.84.84,0,0,0-1,.82c0,.51.31.76,1,1.06.87.36,1.29.8,1.29,1.6a1.59,1.59,0,0,1-1.78,1.6A2.51,2.51,0,0,1,66.81,88Z" transform="translate(-9.99 -4)"/><rect x="62.49" y="78.84" width="0.66" height="5.47"/><path d="M76,88.31V82.84h.73l1.63,2.76a17.75,17.75,0,0,1,.91,1.78h0c-.06-.73-.07-1.4-.07-2.24V82.84h.61v5.47h-.66l-1.62-2.78a17.82,17.82,0,0,1-1-1.83h0c0,.69,0,1.35,0,2.26v2.34Z" transform="translate(-9.99 -4)"/><path d="M86.18,88.14a3.07,3.07,0,0,1-1.36.27,2.47,2.47,0,0,1-2.5-2.79A2.63,2.63,0,0,1,85,82.74a2.69,2.69,0,0,1,1.21.24l-.16.58a2.21,2.21,0,0,0-1-.23c-1.2,0-2,.83-2,2.26s.72,2.21,2,2.21a2.59,2.59,0,0,0,1.08-.22Z" transform="translate(-9.99 -4)"/><polygon points="81.34 81.74 79.35 81.74 79.35 83.72 81.57 83.72 81.57 84.3 78.69 84.3 78.69 78.83 81.45 78.83 81.45 79.42 79.35 79.42 79.35 81.15 81.34 81.15 81.34 81.74"/><polygon points="88.58 79.69 88.56 79.69 87.7 80.19 87.58 79.64 88.65 79.02 89.22 79.02 89.22 84.3 88.58 84.3 88.58 79.69"/><path d="M103.06,87.81a3.64,3.64,0,0,0,.54,0,1.82,1.82,0,0,0,1-.52,2.49,2.49,0,0,0,.66-1.4h0a1.41,1.41,0,0,1-1.16.56,1.49,1.49,0,0,1-1.46-1.62,1.76,1.76,0,0,1,1.7-1.87c1,0,1.62.87,1.62,2.22a3.54,3.54,0,0,1-.84,2.49,2.5,2.5,0,0,1-1.44.71,5.47,5.47,0,0,1-.61,0Zm1.21-4.33c-.56,0-1,.54-1,1.28s.37,1.12,1,1.12a1.13,1.13,0,0,0,1-.54.83.83,0,0,0,.06-.27c0-.91-.33-1.59-1-1.59Z" transform="translate(-9.99 -4)"/><polygon points="101.44 79.02 101.44 79.49 99.3 84.3 98.62 84.3 100.75 79.63 100.75 79.61 98.33 79.61 98.33 79.02 101.44 79.02"/><path d="M115.85,88.31V86.87h-2.29v-.46L115.75,83h.73v3.3h.69v.55h-.69v1.44Zm0-2V84.54c0-.27,0-.55,0-.82h0l-.41.79-1.21,1.79v0Z" transform="translate(-9.99 -4)"/><path d="M80.17,31.42s-4.31,8.83-4.33,8.9C74.51,43,73,43,73,43c-.52.1-1,.14-1.59.2l0,.85H77L82.5,33Z" transform="translate(-9.99 -4)"/><path d="M111.66,43.21a10.33,10.33,0,0,1-1.24-.2s-1.55,0-2.87-2.69l-.11-.22h0a1.1,1.1,0,0,0-.06-.16L96.81,6.49,92.12,17.08,99,39.1s1.32,3.2-2.11,3.89c-.51.1-.73.16-1.26.23v.84h16Z" transform="translate(-9.99 -4)"/><path d="M90.11,25.44,83.49,20c-2-1.65-3.36-3.66-3-6.41a6.16,6.16,0,0,1,5.05-5.17c1.9-.38,4.08.34,4.44,1.39,0,0,.6.52-1.23,3.81-.15.26-2.16,4.43-2.34,4.87l2.18,1.72,3-6,4.36-9.28L95.45,4s-.17.37-.26.51a11,11,0,0,1-.94,1.32,4.08,4.08,0,0,1-4,1.49,16.8,16.8,0,0,0-4.46-.38A8.71,8.71,0,0,0,84.6,7h0c-5.28.6-9,4-10,8.83-.88,4.3.56,7.79,5.73,11.59l4.82,3.85c3.39,2.5,5.14,5.21,4.1,7.91a5.2,5.2,0,0,1-3,3.2,7.69,7.69,0,0,1-6,0L79.47,44S85,45.25,89.74,42.92a9.19,9.19,0,0,0,1.32-.69A8.61,8.61,0,0,0,95,36.64c.92-4.24-.73-8.18-4.87-11.2" transform="translate(-9.99 -4)"/></svg>